<svg id="Layer_2" data-name="Layer 2" xmlns="http://www.w3.org/2000/svg" viewBox="0 0 119.25 32"><defs><style>.cls-1,.cls-3{fill:#665787;}.cls-2{fill:#3ebda9;}.cls-3{font-size:14.5px;font-family:Norwester-Regular, Norwester;}.cls-4{letter-spacing:-0.02em;}.cls-5{letter-spacing:0em;}.cls-6{letter-spacing:-0.03em;}.cls-7{letter-spacing:-0.05em;}</style></defs><title>logo_iter_1</title><path class="cls-1" d="M37,20.63H30.59v0h0v6.44h1.29A5.16,5.16,0,0,1,37,21.92h0Z"/><path class="cls-1" d="M37,10.38h0a5.14,5.14,0,0,1-5.15-5.15H30.57v6.44H37Z"/><path class="cls-1" d="M21.61,20.63H15.17v1.29h0a5.14,5.14,0,0,1,5.15,5.15v0h1.29V21.92h0Z"/><path class="cls-1" d="M21.61,10.38h0V5.23H20.32a5.14,5.14,0,0,1-5.15,5.15h0v1.29h6.44Z"/><rect class="cls-2" x="22.88" y="20.65" width="1.28" height="6.44"/><rect class="cls-2" x="28.01" y="20.65" width="1.28" height="6.44"/><rect class="cls-2" x="22.88" y="5.21" width="1.28" height="6.44"/><rect class="cls-2" x="25.45" y="5.21" width="1.28" height="6.44"/><rect class="cls-2" x="28.01" y="5.21" width="1.28" height="6.44"/><rect class="cls-2" x="15.15" y="18.07" width="6.44" height="1.28"/><rect class="cls-2" x="15.15" y="15.51" width="6.44" height="1.28"/><rect class="cls-2" x="15.15" y="12.94" width="6.44" height="1.28"/><rect class="cls-2" x="30.59" y="18.07" width="6.44" height="1.28"/><rect class="cls-2" x="30.59" y="15.51" width="6.44" height="1.28"/><rect class="cls-2" x="30.59" y="12.94" width="6.44" height="1.28"/><path class="cls-1" d="M29.29,12.92H22.87v6.41h2.58v7.76h1.28V19.33h2.56ZM28,18h-3.8v-3.8H28Z"/><text class="cls-3" transform="translate(50.38 21.72) scale(1.06 1)"><tspan class="cls-4">A</tspan><tspan class="cls-5" x="8.21" y="0">C</tspan><tspan class="cls-6" x="15.47" y="0">C</tspan><tspan x="22.3" y="0">TH</tspan><tspan class="cls-7" x="36.22" y="0">P</tspan><tspan x="42.74" y="0">A</tspan></text></svg>